<svg xmlns="http://www.w3.org/2000/svg" viewBox="0 0 64 64" width="64" height="64">
  <defs>
    <linearGradient id="bg" x1="0" y1="0" x2="1" y2="1">
      <stop offset="0%" stop-color="#0f1923"/>
      <stop offset="100%" stop-color="#1a2332"/>
    </linearGradient>
  </defs>
  <rect width="64" height="64" rx="14" fill="url(#bg)"/>
  <polygon points="14,24 10,6 24,18" fill="#f5ebe0"/>
  <polygon points="15,22 12,9 22,18" fill="#c87d3a"/>
  <polygon points="50,24 54,6 40,18" fill="#f5ebe0"/>
  <polygon points="49,22 52,9 42,18" fill="#2d2d2d"/>
  <polygon points="15.5,21 13.5,12 20.5,18" fill="#e8a0a0" opacity="0.5"/>
  <polygon points="48.5,21 50.5,12 43.5,18" fill="#e8a0a0" opacity="0.5"/>
  <ellipse cx="32" cy="36" rx="18" ry="16" fill="#f5ebe0"/>
  <ellipse cx="20" cy="30" rx="9" ry="8" fill="#c87d3a" opacity="0.75"/>
  <ellipse cx="43" cy="29" rx="8" ry="9" fill="#2d2d2d" opacity="0.7"/>
  <ellipse cx="32" cy="34" rx="3.5" ry="10" fill="#f5ebe0"/>
  <ellipse cx="24" cy="33" rx="3.5" ry="4" fill="#b8a44e"/>
  <ellipse cx="40" cy="33" rx="3.5" ry="4" fill="#b8a44e"/>
  <ellipse cx="24" cy="33" rx="1.8" ry="3.2" fill="#1a1a1a"/>
  <ellipse cx="40" cy="33" rx="1.8" ry="3.2" fill="#1a1a1a"/>
  <circle cx="23" cy="31.5" r="1" fill="#fff" opacity="0.8"/>
  <circle cx="39" cy="31.5" r="1" fill="#fff" opacity="0.8"/>
  <ellipse cx="32" cy="39.5" rx="2.2" ry="1.5" fill="#e8a0a0"/>
  <path d="M29.5,41.5 Q32,44 34.5,41.5" fill="none" stroke="#d4a0a0" stroke-width="0.8" stroke-linecap="round"/>
  <!-- 턱 밑 까만 점 (입에서 띄움) -->
  <circle cx="32" cy="46" r="1.5" fill="#2d2d2d"/>
  <line x1="6" y1="36" x2="19" y2="37" stroke="#d4c4b0" stroke-width="0.6" opacity="0.7"/>
  <line x1="6" y1="40" x2="19" y2="39" stroke="#d4c4b0" stroke-width="0.6" opacity="0.7"/>
  <line x1="45" y1="37" x2="58" y2="36" stroke="#d4c4b0" stroke-width="0.6" opacity="0.7"/>
  <line x1="45" y1="39" x2="58" y2="40" stroke="#d4c4b0" stroke-width="0.6" opacity="0.7"/>
  <path d="M18,48 Q32,54 46,48" fill="none" stroke="#e85d75" stroke-width="2" stroke-linecap="round"/>
  <!-- 목걸이 태그 (골드 배경) -->
  <rect x="22" y="51" width="20" height="9" rx="3" fill="#d4a843" stroke="#b8922e" stroke-width="0.7"/>
  <rect x="23" y="52" width="18" height="7" rx="2" fill="#e8c35a"/>
  <text x="32" y="57.5" text-anchor="middle" font-size="5.5" font-family="sans-serif" font-weight="bold" fill="#4a3000">초단</text>
</svg>